<mxfile host="Electron" modified="2024-01-24T11:17:31.130Z" agent="Mozilla/5.0 (Macintosh; Intel Mac OS X 10_15_7) AppleWebKit/537.36 (KHTML, like Gecko) draw.io/22.1.21 Chrome/120.0.6099.109 Electron/28.1.0 Safari/537.36" etag="dWaUwG8j-tfMpHSHWuCW" version="22.1.21" type="device">
  <diagram name="Page-1" id="1czbJtJoHRv06-0vDymS">
    <mxGraphModel dx="1363" dy="843" grid="1" gridSize="10" guides="1" tooltips="1" connect="1" arrows="1" fold="1" page="1" pageScale="1" pageWidth="827" pageHeight="1169" math="0" shadow="0">
      <root>
        <mxCell id="0" />
        <mxCell id="1" parent="0" />
        <mxCell id="qeyh150g8_vEcNONir6B-33" style="edgeStyle=orthogonalEdgeStyle;rounded=0;orthogonalLoop=1;jettySize=auto;html=1;exitX=0.474;exitY=1.008;exitDx=0;exitDy=0;exitPerimeter=0;" parent="1" source="qeyh150g8_vEcNONir6B-27" target="qeyh150g8_vEcNONir6B-34" edge="1">
          <mxGeometry relative="1" as="geometry">
            <mxPoint x="367" y="618" as="targetPoint" />
            <Array as="points">
              <mxPoint x="367" y="509" />
            </Array>
          </mxGeometry>
        </mxCell>
        <mxCell id="qeyh150g8_vEcNONir6B-12" value="Figure (a) - Generation of Single Variable Explainers" style="swimlane;whiteSpace=wrap;html=1;fillColor=#f8cecc;strokeColor=#b85450;" parent="1" vertex="1">
          <mxGeometry x="47" y="128" width="633" height="400" as="geometry" />
        </mxCell>
        <mxCell id="qeyh150g8_vEcNONir6B-23" style="edgeStyle=orthogonalEdgeStyle;rounded=0;orthogonalLoop=1;jettySize=auto;html=1;entryX=0.5;entryY=0;entryDx=0;entryDy=0;" parent="qeyh150g8_vEcNONir6B-12" source="qeyh150g8_vEcNONir6B-15" target="qeyh150g8_vEcNONir6B-21" edge="1">
          <mxGeometry relative="1" as="geometry" />
        </mxCell>
        <mxCell id="qeyh150g8_vEcNONir6B-15" value="Modified Data &lt;br&gt;Points" style="shape=internalStorage;whiteSpace=wrap;html=1;dx=15;dy=15;rounded=1;arcSize=8;strokeWidth=2;fillColor=#f8cecc;strokeColor=#b85450;" parent="qeyh150g8_vEcNONir6B-12" vertex="1">
          <mxGeometry x="250" y="50" width="144" height="70" as="geometry" />
        </mxCell>
        <mxCell id="qeyh150g8_vEcNONir6B-22" style="edgeStyle=orthogonalEdgeStyle;rounded=0;orthogonalLoop=1;jettySize=auto;html=1;entryX=0;entryY=0.5;entryDx=0;entryDy=0;" parent="qeyh150g8_vEcNONir6B-12" source="qeyh150g8_vEcNONir6B-18" target="qeyh150g8_vEcNONir6B-21" edge="1">
          <mxGeometry relative="1" as="geometry">
            <mxPoint x="160" y="180" as="targetPoint" />
          </mxGeometry>
        </mxCell>
        <mxCell id="qeyh150g8_vEcNONir6B-18" value="Choice of any&amp;nbsp;&lt;br style=&quot;border-color: var(--border-color);&quot;&gt;SKLearn&lt;br style=&quot;border-color: var(--border-color);&quot;&gt;Model" style="shape=parallelogram;html=1;strokeWidth=2;perimeter=parallelogramPerimeter;whiteSpace=wrap;rounded=1;arcSize=12;size=0.23;fillColor=#e1d5e7;strokeColor=#9673a6;" parent="qeyh150g8_vEcNONir6B-12" vertex="1">
          <mxGeometry x="10" y="260" width="150" height="60" as="geometry" />
        </mxCell>
        <mxCell id="qeyh150g8_vEcNONir6B-87" style="edgeStyle=orthogonalEdgeStyle;rounded=0;orthogonalLoop=1;jettySize=auto;html=1;entryX=0.5;entryY=0;entryDx=0;entryDy=0;" parent="qeyh150g8_vEcNONir6B-12" source="qeyh150g8_vEcNONir6B-21" target="qeyh150g8_vEcNONir6B-84" edge="1">
          <mxGeometry relative="1" as="geometry" />
        </mxCell>
        <mxCell id="qeyh150g8_vEcNONir6B-21" value="Training set for &lt;br&gt;Surrogate Model" style="shape=internalStorage;whiteSpace=wrap;html=1;dx=15;dy=15;rounded=1;arcSize=8;strokeWidth=2;fillColor=#f8cecc;strokeColor=#b85450;" parent="qeyh150g8_vEcNONir6B-12" vertex="1">
          <mxGeometry x="250" y="145" width="144" height="70" as="geometry" />
        </mxCell>
        <mxCell id="qeyh150g8_vEcNONir6B-17" value="" style="edgeStyle=orthogonalEdgeStyle;rounded=0;orthogonalLoop=1;jettySize=auto;html=1;entryX=0;entryY=0.5;entryDx=0;entryDy=0;exitX=1.017;exitY=0.2;exitDx=0;exitDy=0;exitPerimeter=0;" parent="qeyh150g8_vEcNONir6B-12" source="qeyh150g8_vEcNONir6B-79" target="qeyh150g8_vEcNONir6B-15" edge="1">
          <mxGeometry relative="1" as="geometry">
            <mxPoint x="133.9000000000001" y="85" as="sourcePoint" />
          </mxGeometry>
        </mxCell>
        <mxCell id="qeyh150g8_vEcNONir6B-25" style="edgeStyle=orthogonalEdgeStyle;rounded=0;orthogonalLoop=1;jettySize=auto;html=1;entryX=1;entryY=0.5;entryDx=0;entryDy=0;" parent="qeyh150g8_vEcNONir6B-12" source="qeyh150g8_vEcNONir6B-24" target="qeyh150g8_vEcNONir6B-21" edge="1">
          <mxGeometry relative="1" as="geometry" />
        </mxCell>
        <mxCell id="qeyh150g8_vEcNONir6B-24" value="Black Box &lt;br&gt;Model" style="shape=parallelogram;html=1;strokeWidth=2;perimeter=parallelogramPerimeter;whiteSpace=wrap;rounded=1;arcSize=12;size=0.23;fillColor=#e1d5e7;strokeColor=#9673a6;" parent="qeyh150g8_vEcNONir6B-12" vertex="1">
          <mxGeometry x="480" y="150" width="110" height="60" as="geometry" />
        </mxCell>
        <mxCell id="qeyh150g8_vEcNONir6B-27" value="Single Variable&lt;br&gt;Explainer" style="shape=parallelogram;html=1;strokeWidth=2;perimeter=parallelogramPerimeter;whiteSpace=wrap;rounded=1;arcSize=12;size=0.23;fillColor=#ffe6cc;strokeColor=#d79b00;" parent="qeyh150g8_vEcNONir6B-12" vertex="1">
          <mxGeometry x="233" y="320" width="176" height="60" as="geometry" />
        </mxCell>
        <mxCell id="qeyh150g8_vEcNONir6B-67" value="Using&lt;br&gt;Sampling" style="edgeStyle=orthogonalEdgeStyle;rounded=0;orthogonalLoop=1;jettySize=auto;html=1;entryX=1;entryY=0.5;entryDx=0;entryDy=0;" parent="qeyh150g8_vEcNONir6B-12" source="qeyh150g8_vEcNONir6B-66" target="qeyh150g8_vEcNONir6B-15" edge="1">
          <mxGeometry relative="1" as="geometry" />
        </mxCell>
        <mxCell id="qeyh150g8_vEcNONir6B-66" value="Training&lt;br&gt;Dataset" style="shape=parallelogram;html=1;strokeWidth=2;perimeter=parallelogramPerimeter;whiteSpace=wrap;rounded=1;arcSize=12;size=0.23;fillColor=#e1d5e7;strokeColor=#9673a6;" parent="qeyh150g8_vEcNONir6B-12" vertex="1">
          <mxGeometry x="493" y="55" width="110" height="60" as="geometry" />
        </mxCell>
        <mxCell id="qeyh150g8_vEcNONir6B-77" value="Input Datapoint" style="swimlane;fontStyle=0;childLayout=stackLayout;horizontal=1;startSize=30;horizontalStack=0;resizeParent=1;resizeParentMax=0;resizeLast=0;collapsible=1;marginBottom=0;whiteSpace=wrap;html=1;fillColor=#e1d5e7;strokeColor=#9673a6;" parent="qeyh150g8_vEcNONir6B-12" vertex="1">
          <mxGeometry x="10" y="55" width="130" height="120" as="geometry" />
        </mxCell>
        <mxCell id="qeyh150g8_vEcNONir6B-78" value="Age: 35" style="text;strokeColor=none;fillColor=#e1d5e7;align=left;verticalAlign=middle;spacingLeft=4;spacingRight=4;overflow=hidden;points=[[0,0.5],[1,0.5]];portConstraint=eastwest;rotatable=0;whiteSpace=wrap;html=1;" parent="qeyh150g8_vEcNONir6B-77" vertex="1">
          <mxGeometry y="30" width="130" height="30" as="geometry" />
        </mxCell>
        <mxCell id="qeyh150g8_vEcNONir6B-79" value="Income: 30000" style="text;strokeColor=none;fillColor=#e1d5e7;align=left;verticalAlign=middle;spacingLeft=4;spacingRight=4;overflow=hidden;points=[[0,0.5],[1,0.5]];portConstraint=eastwest;rotatable=0;whiteSpace=wrap;html=1;" parent="qeyh150g8_vEcNONir6B-77" vertex="1">
          <mxGeometry y="60" width="130" height="30" as="geometry" />
        </mxCell>
        <mxCell id="qeyh150g8_vEcNONir6B-80" value="Loan Applied For: 500" style="text;strokeColor=none;fillColor=#e1d5e7;align=left;verticalAlign=middle;spacingLeft=4;spacingRight=4;overflow=hidden;points=[[0,0.5],[1,0.5]];portConstraint=eastwest;rotatable=0;whiteSpace=wrap;html=1;" parent="qeyh150g8_vEcNONir6B-77" vertex="1">
          <mxGeometry y="90" width="130" height="30" as="geometry" />
        </mxCell>
        <mxCell id="qeyh150g8_vEcNONir6B-84" value="" style="verticalLabelPosition=bottom;verticalAlign=top;html=1;shape=process;whiteSpace=wrap;rounded=1;size=0.14;arcSize=6;strokeWidth=2;fillColor=#f8cecc;strokeColor=#b85450;" parent="qeyh150g8_vEcNONir6B-12" vertex="1">
          <mxGeometry x="255" y="250" width="134" height="40" as="geometry" />
        </mxCell>
        <mxCell id="qeyh150g8_vEcNONir6B-88" style="edgeStyle=orthogonalEdgeStyle;rounded=0;orthogonalLoop=1;jettySize=auto;html=1;" parent="qeyh150g8_vEcNONir6B-12" source="qeyh150g8_vEcNONir6B-85" target="qeyh150g8_vEcNONir6B-27" edge="1">
          <mxGeometry relative="1" as="geometry" />
        </mxCell>
        <mxCell id="qeyh150g8_vEcNONir6B-85" value="Train Surrogate Model" style="text;html=1;strokeColor=none;fillColor=none;align=center;verticalAlign=middle;whiteSpace=wrap;rounded=0;" parent="qeyh150g8_vEcNONir6B-12" vertex="1">
          <mxGeometry x="271" y="255" width="100" height="30" as="geometry" />
        </mxCell>
        <mxCell id="qeyh150g8_vEcNONir6B-30" style="edgeStyle=orthogonalEdgeStyle;rounded=0;orthogonalLoop=1;jettySize=auto;html=1;entryX=0.534;entryY=0;entryDx=0;entryDy=0;entryPerimeter=0;" parent="1" target="qeyh150g8_vEcNONir6B-77" edge="1">
          <mxGeometry relative="1" as="geometry">
            <mxPoint x="217" y="68" as="sourcePoint" />
            <mxPoint x="127" y="243" as="targetPoint" />
            <Array as="points">
              <mxPoint x="293" y="68" />
              <mxPoint x="293" y="108" />
              <mxPoint x="126" y="108" />
            </Array>
          </mxGeometry>
        </mxCell>
        <mxCell id="qeyh150g8_vEcNONir6B-35" style="edgeStyle=orthogonalEdgeStyle;rounded=0;orthogonalLoop=1;jettySize=auto;html=1;" parent="1" source="qeyh150g8_vEcNONir6B-34" edge="1">
          <mxGeometry relative="1" as="geometry">
            <mxPoint x="367" y="718" as="targetPoint" />
          </mxGeometry>
        </mxCell>
        <mxCell id="qeyh150g8_vEcNONir6B-34" value="Possible&lt;br&gt;Changes" style="strokeWidth=2;html=1;shape=mxgraph.flowchart.stored_data;whiteSpace=wrap;fillColor=#ffe6cc;strokeColor=#d79b00;" parent="1" vertex="1">
          <mxGeometry x="317" y="598" width="100" height="60" as="geometry" />
        </mxCell>
        <mxCell id="qeyh150g8_vEcNONir6B-41" value="" style="edgeStyle=orthogonalEdgeStyle;rounded=0;orthogonalLoop=1;jettySize=auto;html=1;" parent="1" source="qeyh150g8_vEcNONir6B-36" target="qeyh150g8_vEcNONir6B-40" edge="1">
          <mxGeometry relative="1" as="geometry" />
        </mxCell>
        <mxCell id="qeyh150g8_vEcNONir6B-36" value="Scored&lt;br&gt;Changes" style="strokeWidth=2;html=1;shape=mxgraph.flowchart.stored_data;whiteSpace=wrap;fillColor=#ffe6cc;strokeColor=#d79b00;" parent="1" vertex="1">
          <mxGeometry x="317" y="718" width="100" height="60" as="geometry" />
        </mxCell>
        <mxCell id="qeyh150g8_vEcNONir6B-37" value="Scoring&lt;br&gt;Function" style="shape=parallelogram;html=1;strokeWidth=2;perimeter=parallelogramPerimeter;whiteSpace=wrap;rounded=1;arcSize=12;size=0.23;fillColor=#dae8fc;strokeColor=#6c8ebf;" parent="1" vertex="1">
          <mxGeometry x="123" y="718" width="100" height="60" as="geometry" />
        </mxCell>
        <mxCell id="qeyh150g8_vEcNONir6B-38" style="edgeStyle=orthogonalEdgeStyle;rounded=0;orthogonalLoop=1;jettySize=auto;html=1;entryX=0;entryY=0.5;entryDx=0;entryDy=0;entryPerimeter=0;" parent="1" source="qeyh150g8_vEcNONir6B-37" target="qeyh150g8_vEcNONir6B-36" edge="1">
          <mxGeometry relative="1" as="geometry" />
        </mxCell>
        <mxCell id="qeyh150g8_vEcNONir6B-40" value="New Data&lt;br&gt;Point" style="strokeWidth=2;html=1;shape=mxgraph.flowchart.stored_data;whiteSpace=wrap;fillColor=#ffe6cc;strokeColor=#d79b00;" parent="1" vertex="1">
          <mxGeometry x="317" y="848" width="100" height="60" as="geometry" />
        </mxCell>
        <mxCell id="qeyh150g8_vEcNONir6B-44" value="" style="edgeStyle=orthogonalEdgeStyle;rounded=0;orthogonalLoop=1;jettySize=auto;html=1;" parent="1" source="qeyh150g8_vEcNONir6B-43" target="qeyh150g8_vEcNONir6B-40" edge="1">
          <mxGeometry relative="1" as="geometry" />
        </mxCell>
        <mxCell id="qeyh150g8_vEcNONir6B-43" value="Search&lt;br&gt;Rules" style="shape=parallelogram;html=1;strokeWidth=2;perimeter=parallelogramPerimeter;whiteSpace=wrap;rounded=1;arcSize=12;size=0.23;fillColor=#dae8fc;strokeColor=#6c8ebf;" parent="1" vertex="1">
          <mxGeometry x="533" y="848" width="100" height="60" as="geometry" />
        </mxCell>
        <mxCell id="qeyh150g8_vEcNONir6B-71" value="No" style="edgeStyle=orthogonalEdgeStyle;rounded=0;orthogonalLoop=1;jettySize=auto;html=1;entryX=0.531;entryY=0;entryDx=0;entryDy=0;entryPerimeter=0;" parent="1" source="qeyh150g8_vEcNONir6B-45" target="qeyh150g8_vEcNONir6B-77" edge="1">
          <mxGeometry relative="1" as="geometry">
            <mxPoint x="127" y="188" as="targetPoint" />
            <Array as="points">
              <mxPoint x="30" y="1032" />
              <mxPoint x="30" y="108" />
              <mxPoint x="127" y="108" />
              <mxPoint x="127" y="183" />
            </Array>
          </mxGeometry>
        </mxCell>
        <mxCell id="qeyh150g8_vEcNONir6B-72" value="Yes" style="edgeStyle=orthogonalEdgeStyle;rounded=0;orthogonalLoop=1;jettySize=auto;html=1;entryX=0;entryY=0.5;entryDx=0;entryDy=0;" parent="1" source="qeyh150g8_vEcNONir6B-45" target="qeyh150g8_vEcNONir6B-73" edge="1">
          <mxGeometry relative="1" as="geometry">
            <mxPoint x="510" y="1032" as="targetPoint" />
            <Array as="points">
              <mxPoint x="460" y="1032" />
              <mxPoint x="460" y="992" />
            </Array>
          </mxGeometry>
        </mxCell>
        <mxCell id="qeyh150g8_vEcNONir6B-92" value="Yes" style="edgeStyle=orthogonalEdgeStyle;rounded=0;orthogonalLoop=1;jettySize=auto;html=1;entryX=0;entryY=0.5;entryDx=0;entryDy=0;" parent="1" source="qeyh150g8_vEcNONir6B-45" target="qeyh150g8_vEcNONir6B-89" edge="1">
          <mxGeometry relative="1" as="geometry">
            <Array as="points">
              <mxPoint x="460" y="1032" />
              <mxPoint x="460" y="1107" />
            </Array>
          </mxGeometry>
        </mxCell>
        <mxCell id="qeyh150g8_vEcNONir6B-45" value="Decision Boundary Crossed?" style="strokeWidth=2;html=1;shape=mxgraph.flowchart.decision;whiteSpace=wrap;fillColor=#fff2cc;strokeColor=#d6b656;" parent="1" vertex="1">
          <mxGeometry x="317" y="982" width="100" height="100" as="geometry" />
        </mxCell>
        <mxCell id="qeyh150g8_vEcNONir6B-47" value="Changeability Scores" style="swimlane;fontStyle=0;childLayout=stackLayout;horizontal=1;startSize=30;horizontalStack=0;resizeParent=1;resizeParentMax=0;resizeLast=0;collapsible=1;marginBottom=0;whiteSpace=wrap;html=1;fillColor=#e1d5e7;strokeColor=#9673a6;" parent="1" vertex="1">
          <mxGeometry x="517" y="673" width="140" height="120" as="geometry" />
        </mxCell>
        <mxCell id="qeyh150g8_vEcNONir6B-48" value="Age: 0" style="text;strokeColor=none;fillColor=#e1d5e7;align=left;verticalAlign=middle;spacingLeft=4;spacingRight=4;overflow=hidden;points=[[0,0.5],[1,0.5]];portConstraint=eastwest;rotatable=0;whiteSpace=wrap;html=1;" parent="qeyh150g8_vEcNONir6B-47" vertex="1">
          <mxGeometry y="30" width="140" height="30" as="geometry" />
        </mxCell>
        <mxCell id="qeyh150g8_vEcNONir6B-49" value="Income: 0.5" style="text;strokeColor=none;fillColor=#e1d5e7;align=left;verticalAlign=middle;spacingLeft=4;spacingRight=4;overflow=hidden;points=[[0,0.5],[1,0.5]];portConstraint=eastwest;rotatable=0;whiteSpace=wrap;html=1;" parent="qeyh150g8_vEcNONir6B-47" vertex="1">
          <mxGeometry y="60" width="140" height="30" as="geometry" />
        </mxCell>
        <mxCell id="qeyh150g8_vEcNONir6B-50" value="Loan Applied For: 1" style="text;strokeColor=none;fillColor=#e1d5e7;align=left;verticalAlign=middle;spacingLeft=4;spacingRight=4;overflow=hidden;points=[[0,0.5],[1,0.5]];portConstraint=eastwest;rotatable=0;whiteSpace=wrap;html=1;" parent="qeyh150g8_vEcNONir6B-47" vertex="1">
          <mxGeometry y="90" width="140" height="30" as="geometry" />
        </mxCell>
        <mxCell id="qeyh150g8_vEcNONir6B-51" style="edgeStyle=orthogonalEdgeStyle;rounded=0;orthogonalLoop=1;jettySize=auto;html=1;entryX=0.93;entryY=0.5;entryDx=0;entryDy=0;entryPerimeter=0;" parent="1" source="qeyh150g8_vEcNONir6B-49" target="qeyh150g8_vEcNONir6B-36" edge="1">
          <mxGeometry relative="1" as="geometry" />
        </mxCell>
        <mxCell id="qeyh150g8_vEcNONir6B-57" style="edgeStyle=orthogonalEdgeStyle;rounded=0;orthogonalLoop=1;jettySize=auto;html=1;" parent="1" edge="1">
          <mxGeometry relative="1" as="geometry">
            <mxPoint x="583" y="668" as="targetPoint" />
            <mxPoint x="583" y="641" as="sourcePoint" />
          </mxGeometry>
        </mxCell>
        <mxCell id="qeyh150g8_vEcNONir6B-53" value="Domain Expert" style="shape=umlActor;verticalLabelPosition=bottom;verticalAlign=top;html=1;outlineConnect=0;" parent="1" vertex="1">
          <mxGeometry x="568" y="565" width="30" height="60" as="geometry" />
        </mxCell>
        <mxCell id="qeyh150g8_vEcNONir6B-68" style="edgeStyle=orthogonalEdgeStyle;rounded=0;orthogonalLoop=1;jettySize=auto;html=1;entryX=0.5;entryY=0;entryDx=0;entryDy=0;" parent="1" source="qeyh150g8_vEcNONir6B-59" target="qeyh150g8_vEcNONir6B-66" edge="1">
          <mxGeometry relative="1" as="geometry">
            <Array as="points">
              <mxPoint x="493" y="108" />
              <mxPoint x="595" y="108" />
            </Array>
          </mxGeometry>
        </mxCell>
        <mxCell id="qeyh150g8_vEcNONir6B-59" value="Training Dataset" style="shape=parallelogram;html=1;strokeWidth=2;perimeter=parallelogramPerimeter;whiteSpace=wrap;rounded=1;arcSize=12;size=0.23;fillColor=#e1d5e7;strokeColor=#9673a6;" parent="1" vertex="1">
          <mxGeometry x="393" y="8" width="200" height="60" as="geometry" />
        </mxCell>
        <mxCell id="qeyh150g8_vEcNONir6B-60" value="Explanation Datapoint" style="shape=parallelogram;html=1;strokeWidth=2;perimeter=parallelogramPerimeter;whiteSpace=wrap;rounded=1;arcSize=12;size=0.23;fillColor=#e1d5e7;strokeColor=#9673a6;" parent="1" vertex="1">
          <mxGeometry x="193" y="8" width="200" height="60" as="geometry" />
        </mxCell>
        <mxCell id="qeyh150g8_vEcNONir6B-64" style="edgeStyle=orthogonalEdgeStyle;rounded=0;orthogonalLoop=1;jettySize=auto;html=1;entryX=1;entryY=0.5;entryDx=0;entryDy=0;" parent="1" source="qeyh150g8_vEcNONir6B-63" target="qeyh150g8_vEcNONir6B-24" edge="1">
          <mxGeometry relative="1" as="geometry">
            <Array as="points">
              <mxPoint x="698" y="308" />
            </Array>
          </mxGeometry>
        </mxCell>
        <mxCell id="qeyh150g8_vEcNONir6B-63" value="Black Box Model" style="shape=parallelogram;html=1;strokeWidth=2;perimeter=parallelogramPerimeter;whiteSpace=wrap;rounded=1;arcSize=12;size=0.23;fillColor=#e1d5e7;strokeColor=#9673a6;" parent="1" vertex="1">
          <mxGeometry x="598" y="8" width="200" height="60" as="geometry" />
        </mxCell>
        <mxCell id="qeyh150g8_vEcNONir6B-70" style="edgeStyle=orthogonalEdgeStyle;rounded=0;orthogonalLoop=1;jettySize=auto;html=1;entryX=0.5;entryY=0;entryDx=0;entryDy=0;entryPerimeter=0;" parent="1" source="qeyh150g8_vEcNONir6B-40" target="qeyh150g8_vEcNONir6B-45" edge="1">
          <mxGeometry relative="1" as="geometry" />
        </mxCell>
        <mxCell id="qeyh150g8_vEcNONir6B-76" value="" style="edgeStyle=orthogonalEdgeStyle;rounded=0;orthogonalLoop=1;jettySize=auto;html=1;" parent="1" source="qeyh150g8_vEcNONir6B-73" target="qeyh150g8_vEcNONir6B-74" edge="1">
          <mxGeometry relative="1" as="geometry">
            <Array as="points">
              <mxPoint x="690" y="992" />
              <mxPoint x="690" y="1032" />
            </Array>
          </mxGeometry>
        </mxCell>
        <mxCell id="qeyh150g8_vEcNONir6B-73" value="Actionable&amp;nbsp;&lt;br&gt;Counterfactual&lt;br&gt;e.g. &quot;Apply for a 50% &lt;br&gt;smaller loan&quot;" style="shape=parallelogram;html=1;strokeWidth=2;perimeter=parallelogramPerimeter;whiteSpace=wrap;rounded=1;arcSize=12;size=0.23;fillColor=#d5e8d4;strokeColor=#82b366;" parent="1" vertex="1">
          <mxGeometry x="502" y="952" width="170" height="80" as="geometry" />
        </mxCell>
        <mxCell id="qeyh150g8_vEcNONir6B-74" value="End User" style="shape=umlActor;verticalLabelPosition=bottom;verticalAlign=top;html=1;outlineConnect=0;" parent="1" vertex="1">
          <mxGeometry x="720" y="1002" width="30" height="60" as="geometry" />
        </mxCell>
        <mxCell id="qeyh150g8_vEcNONir6B-91" style="edgeStyle=orthogonalEdgeStyle;rounded=0;orthogonalLoop=1;jettySize=auto;html=1;exitX=1;exitY=0.5;exitDx=0;exitDy=0;" parent="1" source="qeyh150g8_vEcNONir6B-89" target="qeyh150g8_vEcNONir6B-74" edge="1">
          <mxGeometry relative="1" as="geometry">
            <Array as="points">
              <mxPoint x="690" y="1107" />
              <mxPoint x="690" y="1032" />
            </Array>
          </mxGeometry>
        </mxCell>
        <mxCell id="qeyh150g8_vEcNONir6B-89" value="Graphical&lt;br&gt;Counterfacutal&lt;br&gt;&lt;br&gt;&lt;br&gt;&lt;br&gt;&lt;br&gt;" style="shape=parallelogram;html=1;strokeWidth=2;perimeter=parallelogramPerimeter;whiteSpace=wrap;rounded=1;arcSize=12;size=0.23;fillColor=#d5e8d4;strokeColor=#82b366;" parent="1" vertex="1">
          <mxGeometry x="458" y="1052" width="214" height="110" as="geometry" />
        </mxCell>
        <mxCell id="qeyh150g8_vEcNONir6B-90" value="" style="shape=image;verticalLabelPosition=bottom;labelBackgroundColor=default;verticalAlign=top;aspect=fixed;imageAspect=0;image=data:image/png,iVBORw0KGgoAAAANSUhEUgAAASAAAADsCAYAAADU3nv7AAAMPmlDQ1BJQ0MgUHJvZmlsZQAASImVVwdYU8kWnluSkEBoAQSkhN4EESkBpITQQu9NVEISIJQYA0HFji4quHaxgA1dFVGw0iwoYmdR7H2xoKCsiwW78iYFdN1Xvne+b+797z9n/nPm3LllAFA7wRGJclF1APKEBeKYID96UnIKndQDEIACZYABKw43X8SMigoD0IbOf7d3N6A3tKv2Uq1/9v9X0+Dx87kAIFEQp/PyuXkQHwIAr+SKxAUAEKW82dQCkRTDBrTEMEGIF0lxphxXSnG6HO+T+cTFsCBuA0BJhcMRZwKgehny9EJuJtRQ7YfYUcgTCAFQo0PsnZc3mQdxGsTW0EcEsVSfkf6DTubfNNOHNTmczGEsn4vMlPwF+aJczvT/sxz/2/JyJUMxLGFTyRIHx0jnDOt2K2dyqBSrQNwnTI+IhFgT4g8CnswfYpSSJQmOl/ujBtx8FqwZ0IHYkcfxD4XYAOJAYW5EmIJPzxAEsiGGKwSdJihgx0GsC/Eifn5ArMJni3hyjCIWWp8hZjEV/DmOWBZXGuuBJCeeqdB/ncVnK/Qx1aKsuESIKRCbFwoSIiBWhdghPyc2VOEzriiLFTHkI5bESPM3hziGLwzyk+tjhRniwBiFf2le/tB8sS1ZAnaEAh8oyIoLltcHa+NyZPnDuWCX+UJm/JAOPz8pbGguPL5/gHzuWA9fGB+r0PkgKvCLkY/FKaLcKIU/bsrPDZLyphA75xfGKsbiCQVwQcr18QxRQVScPE+8KJsTEiXPB18OwgAL+AM6kMCWDiaDbCDo6Gvog1fynkDAAWKQCfjAXsEMjUiU9QjhMRYUgT8h4oP84XF+sl4+KIT812FWfrQHGbLeQtmIHPAU4jwQCnLhtUQ2SjgcLQE8gYzgH9E5sHFhvrmwSfv/PT/EfmeYkAlTMJKhiHS1IU9iANGfGEwMJNrg+rg37omHwaMvbE44A3cfmsd3f8JTQifhEeE6oYtwe5KgWPxTluGgC+oHKmqR/mMtcEuo6YL74V5QHSrjOrg+sMedYRwm7gMju0CWpchbWhX6T9p/m8EPd0PhR3Yko+QRZF+y9c8jVW1VXYZVpLX+sT7yXNOH680a7vk5PuuH6vPgOfRnT2wRdhA7i53EzmNHsQZAx1qwRqwdOybFw6vriWx1DUWLkeWTA3UE/4g3dGellcx3rHHsdfwi7yvgT5O+owFrsmi6WJCZVUBnwi8Cn84Wch1G0Z0cnZwBkH5f5K+vN9Gy7wai0/6dm/8HAF4tg4ODR75zIS0A7HeDj3/Td86aAT8dygCca+JKxIVyDpceCPAtoQafND1gBMyANZyPE3AFnsAXBIAQEAniQDKYCLPPgutcDKaCmWAeKAFlYDlYAzaAzWAb2AX2ggOgARwFJ8EZcBFcBtfBXbh6usEL0A/egc8IgpAQKkJD9BBjxAKxQ5wQBuKNBCBhSAySjKQhmYgQkSAzkflIGbIS2YBsRaqR/UgTchI5j3Qit5GHSC/yGvmEYqgKqoUaopboaJSBMtFQNA6dgGaiU9AidAG6FF2HVqF70Hr0JHoRvY52oS/QAQxgypgOZoLZYwyMhUViKVgGJsZmY6VYOVaF1WLN8D5fxbqwPuwjTsRpOB23hys4GI/HufgUfDa+BN+A78Lr8Tb8Kv4Q78e/EagEA4IdwYPAJiQRMglTCSWEcsIOwmHCafgsdRPeEYlEHaIV0Q0+i8nEbOIM4hLiRmId8QSxk/iYOEAikfRIdiQvUiSJQyoglZDWk/aQWkhXSN2kD0rKSsZKTkqBSilKQqVipXKl3UrHla4oPVP6TFYnW5A9yJFkHnk6eRl5O7mZfIncTf5M0aBYUbwocZRsyjzKOkot5TTlHuWNsrKyqbK7crSyQHmu8jrlfcrnlB8qf1TRVLFVYamkqkhUlqrsVDmhclvlDZVKtaT6UlOoBdSl1GrqKeoD6gdVmqqDKluVpzpHtUK1XvWK6ks1spqFGlNtolqRWrnaQbVLan3qZHVLdZY6R322eoV6k/pN9QENmsYYjUiNPI0lGrs1zmv0aJI0LTUDNHmaCzS3aZ7SfEzDaGY0Fo1Lm0/bTjtN69YiallpsbWytcq09mp1aPVra2o7aydoT9Ou0D6m3aWD6VjqsHVydZbpHNC5ofNphOEI5gj+iMUjakdcGfFed6Sury5ft1S3Tve67ic9ul6AXo7eCr0Gvfv6uL6tfrT+VP1N+qf1+0ZqjfQcyR1ZOvLAyDsGqIGtQYzBDINtBu0GA4ZGhkGGIsP1hqcM+4x0jHyNso1WGx036jWmGXsbC4xXG7cYP6dr05n0XPo6ehu938TAJNhEYrLVpMPks6mVabxpsWmd6X0zihnDLMNstVmrWb+5sXm4+UzzGvM7FmQLhkWWxVqLsxbvLa0sEy0XWjZY9ljpWrGtiqxqrO5ZU619rKdYV1lfsyHaMGxybDbaXLZFbV1ss2wrbC/ZoXaudgK7jXadowij3EcJR1WNummvYs+0L7SvsX/ooOMQ5lDs0ODwcrT56JTRK0afHf3N0cUx13G7490xmmNCxhSPaR7z2snWietU4XRtLHVs4Ng5YxvHvnK2c+Y7b3K+5UJzCXdZ6NLq8tXVzVXsWuva62buluZW6XaTocWIYixhnHMnuPu5z3E/6v7Rw9WjwOOAx1+e9p45nrs9e8ZZjeOP2z7usZepF8drq1eXN907zXuLd5ePiQ/Hp8rnka+ZL893h+8zpg0zm7mH+dLP0U/sd9jvPcuDNYt1wh/zD/Iv9e8I0AyID9gQ8CDQNDAzsCawP8glaEbQiWBCcGjwiuCbbEM2l13N7g9xC5kV0haqEhobuiH0UZhtmDisORwNDwlfFX4vwiJCGNEQCSLZkasi70dZRU2JOhJNjI6Kroh+GjMmZmbM2Vha7KTY3bHv4vzilsXdjbeOl8S3JqglpCZUJ7xP9E9cmdiVNDppVtLFZP1kQXJjCiklIWVHysD4gPFrxnenuqSWpN6YYDVh2oTzE/Un5k48NkltEmfSwTRCWmLa7rQvnEhOFWcgnZ1emd7PZXHXcl/wfHmreb18L/5K/rMMr4yVGT2ZXpmrMnuzfLLKs/oELMEGwavs4OzN2e9zInN25gzmJubW5SnlpeU1CTWFOcK2yUaTp03uFNmJSkRdUzymrJnSLw4V78hH8ifkNxZowR/5dom15BfJw0LvworCD1MTph6cpjFNOK19uu30xdOfFQUW/TYDn8Gd0TrTZOa8mQ9nMWdtnY3MTp/dOsdszoI53XOD5u6aR5mXM+/3YsfilcVv5yfOb15guGDugse/BP1SU6JaIi65udBz4eZF+CLBoo7FYxevX/ytlFd6ocyxrLzsyxLukgu/jvl13a+DSzOWdixzXbZpOXG5cPmNFT4rdq3UWFm08vGq8FX1q+mrS1e/XTNpzfly5/LNaylrJWu71oWta1xvvn75+i8bsjZcr/CrqKs0qFxc+X4jb+OVTb6bajcbbi7b/GmLYMutrUFb66ssq8q3EbcVbnu6PWH72d8Yv1Xv0N9RtuPrTuHOrl0xu9qq3aqrdxvsXlaD1khqevek7rm8139vY6197dY6nbqyfWCfZN/z/Wn7bxwIPdB6kHGw9pDFocrDtMOl9Uj99Pr+hqyGrsbkxs6mkKbWZs/mw0ccjuw8anK04pj2sWXHKccXHB9sKWoZOCE60Xcy8+Tj1kmtd08lnbrWFt3WcTr09LkzgWdOnWWebTnnde7oeY/zTRcYFxouul6sb3dpP/y7y++HO1w76i+5XWq87H65uXNc5/ErPldOXvW/euYa+9rF6xHXO2/E37h1M/Vm1y3erZ7bubdf3Sm88/nu3HuEe6X31e+XPzB4UPWHzR91Xa5dxx76P2x/FPvo7mPu4xdP8p986V7wlPq0/Jnxs+oep56jvYG9l5+Pf979QvTic1/Jnxp/Vr60fnnoL9+/2vuT+rtfiV8Nvl7yRu/NzrfOb1sHogYevMt79/l96Qe9D7s+Mj6e/ZT46dnnqV9IX9Z9tfna/C30273BvMFBEUfMkf0KYLChGRkAvN4JADUZABrcn1HGy/d/MkPke1YZAv8Jy/eIMnMFoBb+v0f3wb+bmwDs2w63X1BfLRWAKCoAce4AHTt2uA3t1WT7SqkR4T5gC/trel46+Dcm33P+kPfPZyBVdQY/n/8F9Th8PcTujhQAAACKZVhJZk1NACoAAAAIAAQBGgAFAAAAAQAAAD4BGwAFAAAAAQAAAEYBKAADAAAAAQACAACHaQAEAAAAAQAAAE4AAAAAAAAAkAAAAAEAAACQAAAAAQADkoYABwAAABIAAAB4oAIABAAAAAEAAAEgoAMABAAAAAEAAADsAAAAAEFTQ0lJAAAAU2NyZWVuc2hvdNu0QcwAAAAJcEhZcwAAFiUAABYlAUlSJPAAAAHWaVRYdFhNTDpjb20uYWRvYmUueG1wAAAAAAA8eDp4bXBtZXRhIHhtbG5zOng9ImFkb2JlOm5zOm1ldGEvIiB4OnhtcHRrPSJYTVAgQ29yZSA2LjAuMCI+CiAgIDxyZGY6UkRGIHhtbG5zOnJkZj0iaHR0cDovL3d3dy53My5vcmcvMTk5OS8wMi8yMi1yZGYtc3ludGF4LW5zIyI+CiAgICAgIDxyZGY6RGVzY3JpcHRpb24gcmRmOmFib3V0PSIiCiAgICAgICAgICAgIHhtbG5zOmV4aWY9Imh0dHA6Ly9ucy5hZG9iZS5jb20vZXhpZi8xLjAvIj4KICAgICAgICAgPGV4aWY6UGl4ZWxZRGltZW5zaW9uPjIzNjwvZXhpZjpQaXhlbFlEaW1lbnNpb24+CiAgICAgICAgIDxleGlmOlBpeGVsWERpbWVuc2lvbj4yODg8L2V4aWY6UGl4ZWxYRGltZW5zaW9uPgogICAgICAgICA8ZXhpZjpVc2VyQ29tbWVudD5TY3JlZW5zaG90PC9leGlmOlVzZXJDb21tZW50PgogICAgICA8L3JkZjpEZXNjcmlwdGlvbj4KICAgPC9yZGY6UkRGPgo8L3g6eG1wbWV0YT4KccQTPAAAABxpRE9UAAAAAgAAAAAAAAB2AAAAKAAAAHYAAAB2AAAPt987W74AAA+DSURBVHgB7F3bb1XFF15c5Q5SVECLEiggCMhNIgkGYiLyAFpBQBQQHnghPvHEk+Fv4BVjCQWiAsYAgZQQUAkNJKAUa6U3bm0REZAWIVzEH9/+5cS1LwPd5Zzumb2/lZA1e87sPWu+dc6XMmuvWV3+fSRCIQJEgAgkgEAXElACqHNKIkAEPARIQPwiEAEikBgCJKDEoOfERIAIkID4HSACRCAxBEhAiUHPiYkAESAB8TtABIhAYgiQgBKDnhMTASJAAuJ3gAgQgcQQIAElBj0nJgJEgATE7wARIAKJIUACSgx6TkwEiAAJiN8BIkAEEkOABJQY9JyYCBABEhC/A0SACCSGAAkoMeg5MREgAiQgfgesR+DWrVty+fJlaWtr89n6zz//yN27d+XBgwe+/j59+khRUZFAa+nZs6f0799foCl2IEACssMPtOIxCNTV1cm+ffsEWsvff/8tV69eldu3b+tuKS4ullmzZsmIESN8/YMHD5aSkhKPnHwf8CIxBEhAiUHPiduLwKlTp+SLL74QaC2tra3S1NQk0FrGjh0rCxcuFGgtw4YNkylTpgg0xQ4ESEB2+IFWPAYBEtBjwHH8IxKQ4w7MgvkkoPR6mQSUXt+mZmUkoNS4MrQQElAIEnYkhQAiWtjPgdZSVVUl5eXlAq0ltwkNrQV7P++9956MGzdOd8vQoUO9PSBoih0IkIDs8AOteIQAIlrV1dWe1oDU1tbKnj17BFoLwu937twJheFBPKWlpZEENHnyZHnhhRf0Y9hOEAESUILgc2o/AohoVVZWepEt/UljY6McPHhQGhoadLegpN3Dhw89rT949dVXPQKC1gLimTRpEglIg5JwmwSUsAM4/X8IkID+wyIrLRJQVjztwDpJQA44Kc8mkoDyDCgf13EESEAdx87VO0lArnrOYbtNezfY66moqBBoLSCm48ePS3Nzs+6W7t27yzPPPONp/cH48eNl8eLFAq3l2WeflVGjRgk0xQ4ESEB2+CFTViCJ9P79+wKt5fTp01JWVibQWhCab2lpCSWjIrF0+PDhXoKpHv/aa6/J8uXLZeLEibrbS0Lt27cvk1F9qCR7QQJKFv9Mzo7wOd71CRLQiRMnZNOmTQKt5d69e4KMeGgtSC6N+osGka4VK1Z4ES89nm37ECAB2eeT1FtEAkq9i9u9QBJQu6HiwHwhQALKF5LuP4cE5L4PnVsBCcg5lxXMYBJQwaDlg00IkIBMyGSvnwSUPZ8nvmISUOIusMYAEpA1rsiOIbks9uBRqj/99JN8+eWXAq0FhIWkU4TuteBkw6lTp4ZOOEQ2/IIFC0InIup72bYDARKQHX7IlBU4YB4k8/vvv/vWjWx3nP0czHrHi4sI2SPxVAuy3k3Hbrz++uve8Rt6PNv2IUACss8nqbfo/Pnz8v3338uFCxd8a0X/4cOHBbo9gqM1Vq1aJdBaBg0aJCNHjuQbzxoUS9skIEsdk2azSEBp9m68tZGA4uHF0XlAgASUBxBT8ggSUEoc6dIySEAueauwtpKACotvpp+OjWPkbwVzvurr6+XAgQMCrSW3OQ2tBVnvvXv3lh49euhuL9frk08+CeV8IUn1xRdfDCWp+m7mhRUIkICscEM6jUDo/MaNG14IXa/wzJkzsm3bNoHWgrD8tWvXQpVOc1nvAwYM0MNlwoQJsmzZMkH2uxYc0YF7oCl2I0ACsts/TluHDPYrV65IsGoFyuxs3rw5VOkUYXa86xMMt5uy3kFAH374oUdEGqhu3bpFnhOkx7BtBwIkIDv8kEorSECpdGteF0UCyiucfJhGgASk0WA7CgESUBQq7MsLAiSgvMCY6oeQgFLt3mQXhw3luro6uX79us+QX375Rb766iuvCKH+AHs/USkXOHZ12rRpoZyv0aNHy7x587xTEfVzsAeEiBk0xW4ESEB2+8dp686dOxeZWoEUjB9//DGUioHFIu8L/7TgcPlFixZJsNDgc889521AQ2vp0qWLdO3aVaApdiNAArLbP05b99tvv8l3330nZ8+e9a0DSahRyai+QeoCGe9r1qzxMt9VtyAsX1xc7Gndz7Y7CJCA3PGVc5aSgJxzWacbTALqdMizMyEJKDu+7uhKSUAdRY73PREBEtATIcr8ABJQ5r8CTw+AKeerpqZGdu7cKdBa/vzzT+/QMUTJtCByFZXzhcPFPv30U4HWgiKDzz//vEBT3ESABOSm36yy2pTzVVVVJeXl5QKtBeMRmofWYtpURoXTjz/+OFTpFITVq1evUGlm/Uy27UaABGS3f5ywzvTCISJdZY9KLUed8YzKqDjrWUtRUZGMGTNGoLUg2TQq6RRh9tw/PZ5tdxAgAbnjK2stJQFZ6xrrDSMBWe8i+w0kAdnvI1stJAHZ6hmH7CIBOeQsy0wlAVnmEJvNyaVJBFMlclEtaC0Iw+/evTsUBTOd+4OcrxkzZgi0lpKSEnn33XcFOijcAwoi4tY1CcgtfyVqbY44gkesNjQ0SEVFhTQ2Nvrsa2lpkZMnT0rwiFUMiiIO5Hp98MEHkTlfyAcL5nzlnuOblBdOIUACcspdyRoL4kH0KkhA1dXV8s0334Sy2xFqBzkFs+GRKIpznqG14D2f1atXh973yZ3xHDySVd/LtpsIkIDc9FsiVpOAEoE91ZOSgFLt3vwujgSUXzz5tEf/FX+0oeg/fIWoEAEDAiQgAzDs7jACJKAOQ5e9G1HjCyF3aC1NTU1SWVkply5d0t3S1tYmzc3NntYfmFIxUON9xYoVoTpfyPUaMmSI9OnTRz+G7RQgQAJKgRM7awkor/PHH394JBScM+oPaaRagGxQakfLxYsX5YcffhBoLSizs2TJklCZHWxYo8YXj1jVaKWjTQJKhx87ZRWtra3eXzTQWhCdQiXS9kapfv31V9m1a1fo/SCE4XH0KkLulGwgQALKhp/zskoSUF5g5EMUAiQgBQabj0eABPR4fPhpfARIQPExy+wdJKDMur5gCycBFQxa+x/8119/yfnz5wVay6BBg+SVV14RaC1Xr1713naG1mIqj6PH6LapXA/mnDt3rowcOVIP9+yLY6fvZl5YjQAJyGr3FNa4n3/+WbZs2SLQWpASsWrVqlBKRH19vezfv1+gtaBA4Pz58wW6PXLz5k0vAgatZeDAgTJixAiB1hLXTn0v23YjQAKy2z8Fte7IkSOyceNGgdYyZ84c+fzzzwVaS66iKbQWnFi4dOlSgW6PmN4n6tmzp/Tr10+gtcC+OHbqe9m2GwESkN3+Kah1cX/YJKCCuiOTDycBZdLt/180CSjDzrdk6SQgSxyRhBkkoCRQ55waARKQRiOlbVO0y7S5O3v2bNmwYYNAa0HqxNGjR0M5X4haRUWvcqkb0FqQVoEzfoJ7PRh35cqVUKqHyU7TXpWei227ESAB2e2fvFhn+gGbiGnmzJny2WefyRtvvOGbHyciIiMeWoupQKAp3P7yyy/LW2+9JdBaUD9s69atoTpiJjtJQBo9N9skIDf9Fstq03+1TA+ZPn26rF27VqC1IEI1bNgwL1Kl+01tbFp//fXXEhU1Q9JpMGoW104SkAl5d/pJQO74qsOWxv1hk4A6DDVvjIkACSgmYC4OJwG56LVs2EwCyoCfSUAZcLKjSyQBOeq4OGabCMiU8/XSSy/Jm2++KcXFxb5pULN97NixodrtvkHqAikbBw4ciEzdQJ2vYOpGXDtNKSPKBDYtR4AEZLmD8mGe6Ydt+gHfuHHDK6cDrQXh9rfffjuULKrH6DaSVmtqaiQqeRWHjwXrfMW100Sg2ga27UaABGS3f/JinemHbYoioaLpt99+K9Baxo0bJ6WlpQLdHjGdCZ2r8wWtJa6d+l623USABOSm32JZHfeHTQKKBS8HPwUCJKCnAM+VW0lArngqe3aSgDLgcxJQBpzs6BJJQI46Lo7ZplSMiRMnyvLlywVaC6pW7Ny5M1S1Am8uf/TRR6Hxt2/flmvXrgl0UKLK9aC+V1SdL5Odps3y4Fy8dg8BEpB7PottsSmXqlevXt7pg9Bazpw5I9u3bxdoLTNmzJB169YJtBYUJDx27FgoSRVpG3irevjw4Xq4V98rqs6XyU5Gu3zwpeqCBJQqd8ZbjClb/fTp015SKLSWWbNmyfr16wVay9mzZ2XPnj0CrQXvDC1YsMB7d0j3s00EcgiQgHJIZFCTgDLodMuWTAKyzCGdaQ4JqDPR5lxRCJCAolDJSB8JKCOOtniZJCCLnVNo0xC5qq2t9SJYei7Ti4im6hdI2WhsbJRg6oapzpeei+1sI0ACyrD/Gxoa5ODBgx55aBiamprk+PHjAq3FFI1ClAvRLkS9tCDXCzlfCLlTiEAUAiSgKFQy0lddXe297wOtxVQBtWvXrtK9e3eB1oL3dFauXBkqZDhgwAAvox6aQgSiECABRaGSkT4SUEYcbfEySUAWO6fQppGACo0wn/8kBEhAT0IoxZ+TgFLsXEeWRgJyxFFPYyZK6aAeO7QWVKvYsWNHqGoFUiJQUicY1UIdL5zhgzQKLZMmTfL2gKC1oFwPNqKhKUQgCgESUBQqKeu7c+eORybQWpD8WVZWJtBa7t69K62trQKtZeDAgV4tL2gtpqTWbt26eWSFjWsKEYhCgAQUhUrK+m7duuVVHMWLh1pOnTolmzdvFmgtKDx4//79UAFChNOR3xUMq+P9oGXLloXqfOlnsk0EohAgAUWhkrI+ElDKHJqi5ZCAUuRM01JIQCZk2J80AiSgpD3QCfOTgDoBZE7RIQRIQB2Cza2bcgd9BaNaOHCsvLxcqqqqfAvCHhAiZtBakGoxZcqUUMoF9oUWLlzIc380WGy3CwESULtgcnvQ5cuX5eTJk9LS0uJbSF1dnezdu9dLSPV98OgCR6kGj1MdNWqUvPPOOwKtBQUMowoZ6jFsE4EoBEhAUaikrO/ixYty9OhRgdaCDPZDhw6FklH1GN1GPbD3338/VBds6NChMnnyZIGmEIE4CJCA4qDl6FgSkKOOy4DZJKAMOJkElAEnO7pEEpCjjotjNgkoDloc25kIkIA6E+2E5sLBYxUVFQKtBeV0KisrQ+V0cN5Pjx49vPI5evz48eNlyZIlMmHCBN0tgwcPlpKSEikqKvL184IIPAkBEtCTEErB5wi3b9u2LVTnC0eyIhJ2/fp13yqRbIpDxIL1wnDw2OrVq71QvL4B43BaYnC8HsM2EYhCgAQUhUrK+hCCR84XtJa2tjZpbm4WaC2oXIq/Znr37q27vWNX165d62n9AZJOo/5i0mPYJgJRCJCAolBJWR8JKGUOTdFy/gcAAP//+uXzvwAANv5JREFU7d0HkGRVFQbgS5IkCBIUUFhUQEkiIgZQV1QUBfOigArqioplLlfLUBZVlopiiWJiRVhEQEQxgwlFRQQJJjCBuIKIAQM5o/3d4lh3mzfdr2enZ9/M3FvV83q637v33P+c859z7gu90n97LdU2qxG44IIL0tFHH51sy3bdddelK6+8MtmWba211kobbLBBWnPNNcuP0y677JIOPvjgvC2/WGWVVdJqq62WbGurCIyCwEqVgEaBa2buWwloZuptLkhdCWgOaLkS0BxQ8gydYiWgGaq4UcSuBDQKWnXf6USgEtB0oj3mse688850++23J9uynX/++emoo45KtmW78cYb09VXX51sy7beeuulLbfcMtmWbccdd0z7779/si3byiuvnFZdddVkW1tFYBQEKgGNglbH97311lvTDTfckGzLdu6556Yjjzwy2ZbtjjvuSLfcckuyLdvmm2+edt9992RbNqS0xx57ZHIqP19ppZVSvMrP6/uKwDAEKgENQ2gGfX/zzTena665JtmW7ZxzzklHHHFEsm3Tttpqq7TXXnsl27Jtttlmadddd022tVUEpgKBSkBTgWJH+qgE1BFFVDFaI1AJqDVU3d+xElD3dVQlXBaBSkDL4jGj/6sENKPVNyeFrwQ0i9R+7bXXpiuuuCLZlu3CCy9MxxxzTLJt07bZZpu0zz77pK233nqZ3TfddNO08847p0022WSZz+s/FYHJIlAJaLLIdfA4t1U402VbtksvvTSdfvrp6ZJLLik/nvD9tttumxYsWJBsy7bxxhun7bbbLm200Ublx/V9RWDSCFQCmjR03TvwsssuS2eccUayLdvll1+ezjrrrGTbpm2//fZpv/32S7Zlc3+Y7GjDDTcsP67vKwKTRqAS0KSh696BlYC6p5Mq0WAEKgENxmdGfVsJaEapqwrbQ6AS0Cwyg0pAs0iZc2QqlYBmkaItPp933nl3W4S2+HzaaafdbRHa83tWX331fB9XCUOsAe2www7lx/nesC222OJu94gts1P9pyIwAgKVgEYAq+u7erDYVVdddbcHjLkbfvHixXd7IJkHj1lQXnvttZeZGuI54IADUj8BrbHGGmn99ddPtrVVBKYCgUpAU4FiR/qY6GbUs88+Ox1++OHJtmzrrrtuvq9rnXXWKT/Od7sjoP673t3x7imJnn5YW0VgKhCoBDQVKHakj0pAHVFEFaM1ApWAWkPV/R0rAXVfR1XCZRGoBLQsHjP6v0pAM1p9c1L4SkCzSO2ehnjTTTflpyKW07rooovSySefnC6++OLy4/zgsuuvvz7ddttty3zufq+FCxfm+77KL6wBOWtWf/2iRKW+Xx4EKgEtD3odO9YvLHm6Yf8jWeMmVQ8rKxtiOumkk5Jt2Xbbbbe0aNGiZFs2j1z18vTD2ioCU4FAJaCpQHGG9nHmmWemQw89NNmWbf78+eld73pXsq2tIjBOBCoBjRPdjvddCajjCpoD4lUCmgNKnmiKlYAmQqZ+Pl0IVAKaLqQ7OE4loA4qZY6JVAlojim8nO7Pf/7zdNxxxyXbsu20007pwAMPTLa1VQTGiUAloHGi2/G+//Of/6SlS5cm27L5QcJ58+bVm05LUOr7sSBQCWgssNZOKwIVgTYIVAJqg1LdpyJQERgLApWAxgJr7bQiUBFog0AloDYo1X0qAhWBsSBQCWgssNZOKwIVgTYIVAJqg1LdpyJQERgLApWAxgJr7bQiUBFog0AloDYo1X0qAhWBsSBQCWgssNZOKwIVgTYIVAJqg1LdpyJQERgLApWAxgJr7bQiUBFog0AloDYo1X0qAhWBsSBQCWgssNZOKwIVgTYIVAJqg1LdpyJQERgLApWAxgJr7bQiUBFog0AloDYo1X0qAhWBsSBQCWgssNZOKwIVgTYIVAJqg1LdpyJQERgLApWAxgJr7bQiUBFog0AloDYo1X0qAhWBsSBQCWgssNZOKwIVgTYIVAJqg1LdpyJQERgLAp0goPh5mNtuuy1tvPHG+edg1lprrbTaaquNZdLj7vT2229PN998c/65m7/+9a9plVVWSZtvvnme18orr5xWWmmlLIL53njjjenaa69N//73v9MNN9yQHGve66yzToLBPe5xj3Trrbemf/3rX/m9fu51r3uNewqN/c82PTVOcgZ/eOedd2b7oac///nP6b///W/adNNNs92xI3Y4Srv++usT+73pppuy7d3znvdM9773vdOaa645SjcD9+0EAcUP5F1zzTXpCU94Qv5BvBXpaAMRa/FlKM68vvWtb2WF7bfffnlepSGY7+WXX55+85vfpPPOOy//Rtd1112XCeYhD3lIuv/9758Vjnx++tOf5vf7779/2mGHHVpIMfW7zDY9TT1CK7ZHgYrt0dMXv/jFdMcdd6R99tkn291kiOPSSy9N3/zmN9OVV16Zbe9BD3pQ2nXXXdNmm202ZRNdLgLCuCaJITmTyYvogBDJNay76qqrZgYV0dddd9209tprZ6f0uRY/EXz11Ven5z//+Wn+/PnpwQ9+cNpwww3z9zPtDxyuuuqq9LOf/Syddtppea4vfOEL084775xxiEiEfH784x/n/ZDQP//5z5wdyQK32267nDUxHAR0zjnnpA022CC96EUvSjvuuOMKgWS26WkiEGWmslHBQGbKpsOeZafsd/31189ZqmygK5k6vyMzu/v85z+fffNZz3pWetjDHpZth5xtMvPABZEtWbIkIaL73ve+mcie+tSnJkQ0VW25CIiikA+G/OUvf5kuueSSnPohEkqTAlKQcoIjyWq23XbbtOWWW6ZNNtkkf24is82wo7T6xz/+kTMchLPNNttkQvU+SjCGcuyxx6bf/e532UDud7/7pa222ipHGGQDt9VXXz3dcsst6W9/+1taY4010tZbb533nSoDGKWf2aanieYepeZvf/vb7Mx/+tOfcnClNwHUr8busssuWad05rMuNMkA2+N/SIP/8bWNNtoo2xHyUVINy8xjLp0loKg1Rew//vGP2YEuuuiiTD6iv4kCwnoHB0JCXpxKWaG8oED1qTbbDJviYQQD5MFwzV/G573vvc4666z0/ve/P+O2++675/RWliTFFa2CrOwbeCKhyBzDUKZrO9v01I+bLIe+lvZ+rlrGyaa9lwVxbo1O2LFAoRR+xCMekQNr6Ku/z+n8P+zKPPigxv/Ixu5UKeZDj8cdd1yypvOWt7wlVxxNdtVZAopak4K+9rWvpYsvvjhnPBZHlU6IRfQ2KROXDckG/v73v+fSBCtbE4m1jNlo2IwBCXlpDBcha0FOP/zhD9P73ve+XHo973nPS0hIhqP0LBer4xhYBinljqb5z2zUUwmhsouNnn/++ekLX/hCzhYe8IAHZIJRgtDbFVdckV+yfsHUksHDH/7wXJKx9xXdgoRKwmQ3XpHZzXgCEhH+8Ic/pJ/85Cfpy1/+ci4PkIrySgT3Xo1MIZSGef/yl7+kyy67LElrpYTPfe5z8/4UNsywlXnGVN8iM1EqanIOieWxOdJbb731/k98YQyUEaRpPUWWpo9SSbIKfZSlD6UZh2HK9owfY1M0knCctS0lpvFlOo5rqrX1Tw5zYcjWf0444YQ8p6c85Sm5xmbo8dJvjD/oLJjsCC7kY2Te+4yMJT5KBUEiAkPgE4QIF+l7zNPxgYv5XXDBBemwww7L+pzMWh2Z6NI4bAKuPqMHmIWscDSetRbRO4ibvGTSBzycPdQHTM1B04f56aOcb/5yyB9BUjClF2t32l577ZVtGtmQU8aPoL797W9nu2PHAscDH/jALPOgIchOTjqif/1ZimCzbJjsGmysD8LJ/M2jXLIwX/OOs6f2IR/7Yi/6L8+COR6G1iXJLvA1nRxhu/ogjyD4+9//Pi0p1oAsIzzykY/M/ks2ctCbEyvwZlvhf4NwKL+b1BpQrI4joF//+tdZWBFcWUVwwhAqDCcMD2AcGdhBUoQZRkDIi/FbqKUYhsLJKBRoFm1FKtnXTjvtlB3Y2MDRgsDI7WyStSpy6EMjDyVZXHv0ox+da3tExPkoGnFKySnEWgzwGQ/FU9i8u9YEjG9NwNhNtbb+OY71stNPPz3PyfqCvpBOKE8/CMmambEY/aCzYAyWQVtLkjbrkxHqF4nBx9hKXwvYxoJN4INU6QY+nE+QQESMmS5h6+yHOX3qU5/KJDwZAjKGzME4v/jFL7KcyNj4ZEE4gpMskKGzEePTjxYOzLmcNUQW5grT6IM9mB9nERBl2fe5z33y8cP+CKoc09ocPOlywYIFGTM4Gp89sMUTTzwx28L222+fy7DHP/7xaYstthg4BH3wBTo66aSTssxPf/rTs82ytxjjV7/6Vfrc5z6X7ZRdGsN+cNEiAeB7ZBHsyaksZC/6L8+CwYE/wkvAO/vss7MuER4bY3dslgyIlA8hVbgGAcGQHdGP4MoXyOG40Bk5w/8GAlF8ORIBhQFceOGF6ZhjjsmK8plBDzrooJyKclpCNTUKwJpaeTp6GAFxwDPOOCNRjBSZwzE40cR4jI6iKOhxj3tcNr7IwIzlGOUix6cchMa5HM/w9SFqAt/xgBRx7IN8jItskV9EbPOOiE2JHJSx68P8lzbU2gia0sjx9a9/PRsPh4QLJYognA1RPO1pT8syIDwyOx3Ksd761rdm4zAv8sGBXCJbEDTDYSTmB2eGDQ8G+pjHPCbj5H+4aQgd6Rjn3HPPzf0FtkiB8TkWKZFbn5MhIKSP/DkODDg5h4Zp4InUOb5MGp6xeE9Oc4Kf49kDwhVEwhbo0vGCID0gWwFFf20amTgoHGHm+Gc/+9lZH+Xx5X7shpxlRl/uW74PAvrRj36UPvjBD2bShyNnR/Js2FwEgQ996EPZvwS43XbbLb3qVa/KRGeO7FdAQsIIyJqh78kh8PCnD3/4w9k+XvGKV2Sd06N5HX/88ZmA6Jz9Ota4QUD07KwZP4A1AoK34+3Hbtgdu+WHdMdmkZfxBU4BlG3xq2FtJAICYABkgpyTszJqqSrhAeTV1ILAfGfCsR/ADj300GzgTYbNmX/wgx/kFJKTMg5OQB5RVRRkFD4jC0cHBsbWMP8pp5ySt8ZkoAyb0/sfKSo79CvqSmc5u4gvIuqbwhhDZBDABT4HYvSclDIdr5HZvMrFPobEsTliZBtf+tKXcobm+idYkkk/SM38RBqk0ERAxkZQAsJXv/rV3K95cTglDBk5qIzBHBic9QrOHZGKThiYiCkr0adjzRN+vg95OTwjNtcmPeWJD/iDwBAdeRgvLGBKTkZtLmRh+HQJj+c85zk5k6GnCCTIlpM6hq5hxeDtg6Tgxr4EEc5El20ah/74xz+edScIWGCml3m9DLdsSFQGK1NiI+z+JS95SR6r3K//fdg/8vjYxz6Wj2UTghedyEQED3OTadKrhkTf+MY3ZiJiawLyd77znRwY2SWydX0YOZoI6LGPfWwmCHqU/SDA73//+xkzBOuSD3izf/7FBmEnI0RA5OUf5LMvG7ePRqd4gO0goX333Tdnr7EOnHca8GckAkI+BOFYGNrkMd783nU7Uua2kaZfHv0NIiCGGc4BGCwMLIbGWGUoDAIYjIUy99xzz6wYY3Hgj3zkI9npKemhD31oJiqGy2hjTYFDRB1rDM7/mc98JjuFSCfDevKTn5zLmSAgCkdEDEOE4Jwco4mApOkUbX/EqRZH5NJmi/KMkUwIQFRhMIiDQTYRUOASDkkG80Ye5PA/fSENaxbWABiJ+btAjSGZu/Ly6KOPzoYd+DzqUY/KRoicGZgAEFnWZAkIVoIF8tGQBpzNFSaISUQ3Z0REl6985SsTWeDme5hxCPuYi9IDyYjQGgJFurY+M0djtGmc8/DDD8/Rna4EMyQkIJTNHDhxyKH0evWrX52JpNxvovdsWWBCJIIdfeyxxx5ZTn2z16985Ss5YJqLYHHIIYfkTElJKngJqIjQHJGCjFlfTQRkLnTGf9k0XSoBkf/rXve6bHd0AGNBit148aslPQKS/bNFRP7EJz4xBzG4OkZQQNzkYffsCuGRKUhqIhx8PhIBRcQ1gU984hPZcUQoBCTjMMnJtGEEJKoxWhNEBAGUiMJwMTWZRFdAWe844IADsiOShwN/4AMfyAYMHAYtE8DSCAiRcTT9BfjGUJKIRPpHDAxBRAS+CIuwjG/rf6REPoSytCEDghOl2Z9hkZlccHWBobSXMXMY/VEuY3W6vomAZCQyH0bFcMjF2MyfHOYGM6UOZ9GXY4xx8MEHZ0KVSusf0cJBZhNlCwMlK6JjjPb7xje+kecwmQwIVuZqq5EZzuYKe2Qpo0AEn/3sZ/M4Sgs6gwlZRX6Zh7KTTuiZXmCvmYM52+qfgxqjTUMq73nPe7IM1lyMixz6MyhEiLQ5ppfA+4Y3vCHj1mYcOkAwAgM5Za38yBzpyAve5ijAImKZikwJySAedkmvHF3AFbw4fBMBsTu+CfcIJkox2Lz5zW/Odsde2D6b8aITciAggQd5Ka1e8IIX/J/w7eNzQcN+dEcX5IxgOgyPkQgoFhE5DgA4rZTLBKWsSpvJtGEEFIbLQL1EbZ9RHsPlINZ4OKIIIoqLGKKXhqGlvMAHokU5ikNAorAXZSAHSgCsJspaE2AwnJGDy/Q4MIXJwry8D1J0HCOYiIDsqyFV83ZWCWEdeOCBGUfGJtXVKBQJTkRAUnSZi3lzEusIkf3kDu76w4iRKIxgYQyGx/DNTf+nnnpqzv5e//rXZ8czL1ho9M7YyfvpT386Yz8ZAgrCRr5kQkYMmC7jO7ggGBEapogSqdKV8gRJmDe54aT0Z3vkpcfYeh+kdBcMQzfs+t3vfne2Jw4vIJSlfHSACOGIKB1DNnjKmNo0Nuo486QX+lDCISCf0yc7Z0eyevNUatKtuTpG5izYqkAEDPYsO5qIgNgHYh5kl/14sT3Ewg98h1xc0U+OspmHNWFyyRZlpORSGg5rkyIghsjwp4uAgCpdxfyiBgMoiYhB24dBkwkDlxGJscoUGI3oBUzgIBIlnajCCKx5lGddQllSYkrgKLKL8jjvKZfxMHqNLHFsuQaEqKeSgERhhii7MSfOx1hjjFA+TMKglc2yP4vZiNq89EOnoiQCYtCyhyBiJCEDtY/SG2FOhoD0E2t24XwczGeIJ4IKx6JvGc6LX/ziTMzIH0mxAfLKxAQe+NMfw5eJxAsp0OUobboIKEpn2ZO1GLgrhdgQO5X5KC81+GixsC7bQWD0IBAjLpma+QsY4yAglQW7QkBu7RDEy1YGavshqL333jtn2OV+Te9HIiAODjyG+MlPfnLsJZjJMFrOTFnIxzpGlGMyIC/7cDDyUQoCWrRoUU4DTToyCUYvXWTg1npivYdykQiDl0UgIs7MMRi842QJxpYpWeshm+OkvYweoSEzRk+G6SAgMrmSGgGRS5Zm219yyBK9ODC8lBUH9c5amic8HI9kzeO1r31tLlFLYxE5YUzvLpxk5JMhIM5Eh04KKDHgiRwRT2RB5NQ/J6MPi6syIOtvdEJ3jlWS0o05IVwOa+3MC/nQh/nQD0zatOkqwWJ+xnM6n94sMrOdk08+OWd6ggT7hJn9kT59ycDZM/8TdOhLpsYmAzt6EpjozVkwgW95MiA4GxsBWWsSuMoms5axCvSCsJMHz3zmM+9GVOUx8X4kAgpHN8HpWIQ2GRFb5lJemSriAYTCKAEhRYZk8VJp4RJzpzc10ZUSkadSguHrlzF7+Q6BiSJPetKTMtAiq/F9bl9RyXHWZRyjHIgXIlLzik5SZDJNBwGFw0jZkYp5kxs59jfGqdlySik7p4ct8pkOAoqzkSIm5yAnYqFL5a+si3xIytlBOFpz4EDmJkNAWHCXycqEQ5d0yFnpBwELJEqBprNY/djE/9O1CB32aEH9yCOPzCRqsR0GHBk21oTo0pzYEic3LwTEJuEDP5k+25P9wAYO/HMqCciitywNASl5VQFlI5vrlmRKggECasqUymPi/UgEFNmGRd0jjjgiO73BxnUaXglg8hzN3b0cRmonOiALCgA8YuFI8ZKul9fLxGQRqKyGkYYB2xoDiMATTZQg1o9EUs24sivGEMe5FsNxnEnj0IzDWQJRmNEwhHGWYLG4bixZH1y8ZGKDGkNG3hzZeorskqyipFJgUAlG7xxglAwIqbAdpZOzkQiTEbMdaxtB9hY/Oaf9RHjvm8bRF51wNvqgCy9BKE5EsB0Oo4RDRP7X/6DGfuI0vHVCsjURmIzAWVdrJAhQRtDmNHyMTX5kIYN1PZD1MGtO5HNrk4xI5kIG38n4XJnNBsmkkZUPOPsWa51BbHQ5EQHJLH2/pLe2YxyBWoYp2CL8ssUaEDtnG/Bsuht+2giIIUl5pe1xISKBCSalZ/wmEWsH5WS8D+C95wQingaQptPwjIyDiEz24dgve9nLsrMBDPkYy+Ky08wcCSEwiCYCIrs+EZF1I6WSF6N1vIgqysomnE4UnbUoXRwXx9hadGNEtvpTGzubpXSYDgJydsLZSA7BiWVgLhMYtvgHM3pi3OaO4C1CI/RYhA58zR9pxyI0vXOeJmKwb1OLEs44HA6RwxfR0ZWMjC3AUHCQGVjsnmicsEO6LPXhWOTGcYyFiJUoMoTIsJrki89iLUMGpmyzAI0YZLVlQwhxwaJ+7dfmQsToI+SXdTo5wlaQDZyU+3QpENCn0gshL168OJOtsZRbggfsnAX0mTaMgPifTN5aFz0qaUsC4k9l6xwBhXAYUQTg8EoeBjTsVgzgMGTlC6XJUhi8hlyaCIgBYnrjMErjiAwyDX1QJKMlgwhhX8oUWREQw7MPI+VsFMywHBtsTylKAxfiMV7ESKHmQ0aKdhyHjOM4MFKCA+JiuCIhwlq4cGFO/8lhXuPMgDgKuTkEfJUdanTGbJ4MSlQN4ocnp/U5ovUe6SLROA2v5EEMoqsICT9rDqKc/Sz+wmgyBMTwXXYAUyWGEjlKKxgrdRGizM49hnRUjiNrY0PmgbDMowxkiI0tON5pbqVxnGYO3YUNN20FkrgVQ2ZlDYkdCEj0DwtZiKCoVJJ5y3xlJbIIxDFK4+Dsg/2Yj3lZTrCIK7MR0AU9uMs86UBWrmS15mW/8haNYQREfnZKD0cddVQe8zWveU3O+tmDCoC9sG/bOA3fmQwowGVAlCUzoWiKYPwMH2tzXNlKkASjiRQ5CEvEiMjCUZsIiJMjB9HM2QEG54I95QbjYrQMhSJdms94GYjvEZDSkPPZR7aArBhJrB+Zj88YgJqajLIXBqXWFSEs0Mb6EAIUfTgGYzEeIqYgBsQgyGeNajoIiLyy0SBohuOCNhnpvN5ZPQTPkIKAkbAXY1OWwNB3EWGl50iUwyF5GQSSkmEKAAie/qwHlMSgn0EtMkiOhICUSjBWOhiHPugtbIquOJvPy3E4EHswB7pBSBwROZgnPMjoeLjA4E1velMORPQDn0ENAeofgdGrxg4QATJiS2TXN6Ji30Gksk42P0pjP/yHH5k7m4KtAOB0t0AIu8iU6Mk+9AI39i3IslltGAHBAHb8zdoTzNmrQKAPdmEf9s3X+MWSXqnWOQICAqcUeeNxHCZv1V5EEz05ajAqJ5f5SJEZCcMwcZmKNhEBAUHqD3glgpqf4yA4hsfo9CutpEz7ApjBBAEhKZkNgxLJ1bKAZsAauR0nqmmcF4lyDnI7TpZgPHOSWVASxzQXUYITUyDHjStap4OA6IBsHIIeBAIEy1niNDSMyGpfc4UHgoyLHjk1UrHIH3OBDzJFAL6HMQdxlmMyBARX/SgvGDQnRxpklEHAVqQ3DgenryYCIj9npG/zYB+lnTleOUrPnEuAU6LQCxyGNcewUQQms9SPwEq37AYZsBUBzRaOCJK9wYy9j9LYiGyE/SN4GOhLNlWexo5SyL6CBP8SwO0HP3rS4DNoERphsmn+5DIa84BNnMEVSPiwLZJDPPTVOQKiCAYg5RUdw2BMKAxdtBBxTJqxcVyGRpnWSgBtktpEBAQMgCk1lFiMEsEgQCwdfSoVGKMIxsgtcAYBkcPxHBRhqqnDEY2tHzIiJDU1x5TJUQLnRkCOY9yO5czmj4Sk/4wOIYpGjIHz+37pNJRgdID8OIN5m6dxyWqOoQNy0oE5zeuRPzlFUIasRemjDw6uP8fCBi6iMmz0O5kSLA/S+8M+9I/sYcrZ4Qh/umQPxmFXMgM6LTMgekcOjuUUjo95Ihh9OQZZmKMMgoP5v02DJxKAISdlb97L+OlUMwY7Jqf+BSo2bVzfjdIQHHJBLEpO83MSY37vrF9kJfoTXH3PTwQJerMWar8I9vYbRkB0Sa8CiZuK9QVrPgY/GZx5CfKuLeJrS7pIQCarcUYOwLCka6IP42WoPhf1OKgoFeTDMDgso0AcWtTC6l9nHWQhlIqANJlGpOXG0D8gpeAcXl/KI+SnL+9dPyLDCjKQ/nNQRitKUFbIF7IhHqUBpTIm43IYxyEj44qS+mRwShz7IlRlH5k5k77DuKTqnF/GZ17IQGNsZLWWACtXjvq+xIXhczQOpxRkIE0PpY9MCDaMShbhWP0KAsaHpYyDgSmzvMxb43TKZMcrPxgoUuKQdCQLMD/7uRUCbk16yp0N+ENOaxAcCq6Cl88YP/lEYuPAz3U+dFyOQx7BjnxedBJrQvrgYEhWAKJH/Zmj+Y/S2AfioXekLOsQfIzBltmv/mX77M9nk2nsXTbHDlyQyJ+UX0hT3+aimSf9249M5mRxnL3Ajc1pbIqc9pPBwc9iv/3YTuAgU2YnCBaOdAJz/gQz+yNA/dGD8R0PV/ph82Vjb9/73vfyXNg3fEoCLfftfz/Safj+gzmiSTJ0YDIm7xmqzzWOXGYZlCXaISafa6FwCpBOcmzGxMk1fWJjYwAYMJzA8UDVFyUwUH15HwRmP6SB6ckHaOOEfJGlGY9sUml9Mjb7Ip3+eenTceSzL8VRkD7MV9+OJQsi8hl5zMtxGux8zwDtj3h8X+ISBmXeCIVyY165k7v+mDeMyGlf83VszNH4IStCIa9XkCFZYALbwIkOA2P6Mj/7MV6fN+mplKnpfSmn+RjPZxr5yGYccsOtfxz/m2O8zJnc5KIv86R7/dCjrTn6fJSmTxgiNzqSIZRywkP/MKT/sNNRxrCvcfRtDIHR/JALUtF3EIt5wst+ZPI5EmAvxi5tipz2kxToT9CxX4kD22QnXrD0P8z5E8zsj/zgSg/Gd3zox5zLBivymwtZ4ON4/jCsLRcBDeu8fl8RqAhUBAYhUAloEDr1u4pARWCsCFQCGiu8tfOKQEVgEAKVgAahU7+rCFQExopAJaCxwls7rwhUBAYhUAloEDr1u4pARWCsCFQCGiu8tfOKQEVgEAKVgAahU7+rCFQExopAJaAphNdFYi4AcxGfixrjFReUTeFQA7tqewHjwE56X8bFlC5Wc5GZiyTjHjPH+syFiy5Ec9GaC89coOhCNM2Fhm0uZMs71z9zEoFKQFOo9rip020MbuuIl1tDprO5arbNLRzDZEIeLut3ub4rtl2t/YxnPCPfJuBYn7nFxaX4SM9V2m7GdSm+RoY2l/LnneufOYlAJaApVLsbGD23RRbkp3/i5X6h6WxBHMgBASAON+e6P2eU5h4h90K5d8v9UPpxD1I8lDxuknRPkWzJ554nFE85cG+Zm4jh4RYL95+5CTbw6ErG2I+JDFbWRz63K7gVwa0KbjMob0mI2yVGvdUjxnOrhMxR/241MmbcRhO3l7g9QmYJPxl1m1s/ylst9Ksvx7rFQj/9t1KEPCtiWwloClGfbQSkxJLNubeIc3AE2Y37oLRhBMR540ZO5RsHcGd9lGhdyRj7TUBZaW7kQ65uSkYSyMDc3dCLSBFq23ue+sfwP1KTOSJoTwgIonf/oc8RnvuvYO6ue48XaXPzq/v13MDshlOPanF/mGPdZNp0M2mTbNP12ZwnIFFIczPj8rbZRkAipxsmOUpkANazOKI2jIAcEzcmcybHlTdPdgWv0HvchKp0lD16bpEsEPnCQjMHmaAszzOTOLXHiMiCRrEhdofYlbFKXGSxtHcHPtJG/IE34p7Xe4SKbNrjP8oAEHLHNvAmvwf0eVCdDFbzjCuP2Gh6pnMcvyK2c5qAIgUGPAcZxYCalNUVh5qqEgw+5cucS0cbRkCBr60WGAfOXcErC9f7gxCsZ3mqotLR/9bxrG0pXRAD54av8kwmFL8UWj7FIPqbaBu4IB7P5ZFpybCUSR6HYSFff5pyynuk5wSAu+CVfk0tTgogHc9TkgU5EaDfKH8rATUh1/dZefZExIwaW1oaNTIjFo0pA8BS41BadBdrDJRoP/1IR/1PWQzBMUoDSlff61/EY3ze299+jlU7x3jlc1hivHAoz0SSootYjNQxDExfnDDGJLfv+s+SyRrI7gUL8oYcjiencsix5u09PMKx+wnIIx48nF3EtiZgXmWE1Y9SQrpvnsbQjAsHeMCL3OVZsGEEVOqxXDsxNhk9itRPMMsyYsHeNhbtYewJj+YFUxkKOX2ujOt/DEY83kIWoXSUrXhqIf2W+IS++rfGIBM9ev6OMTxzOR5fCzdkoayRIcHeL9p6LKrSEn5tGlzJ6BlXfs7G83YQjzLJs4CUWXTK7kJXgZ8x+9dw7OcFU6Tj2Vy2+nW8vuDoIYCVgFpoKM6eqI1LYuE8Hg1qy0kYqgc3SYcZiSgRTmiYWGNQEyMCBsWpGafUVxPdEIX0FCFYs+BYzv54b3/pN6VLtRkJJ/FgNaRVtiAgfVM2eRgGJ2bcHJIhcWJkoA8Lt5yqbOST/pMDFhzUsRzX8aIxx3KsB2Mx2LK06ScgsnuQGSJi9FJ9hon4OI45cSJOUDp29DPRWbBhBBR67H+gFTK2OO4xpJzZmgfs4xWEDCOPVKVrP8tEF+T0OYdCLGXj1LDngPpGrJ6oaP8Sn/KY8j3MjWPdR2MzHvIPHzIJAsbwMLUlvScFIma/I+chYkox+m7TYo0JyX33u9/NfXv4PZuJgBJBtww8CJX+47sYK0plcsfv59ElQkZE8GZzfKQSUKA2YMv5KZhBYG9OwZgA6sFHFE8xjILzIiCPskRG9gsDDkLwFD0K4biMmUIYAaNkyI73SFXk5RhKk4ojOk6vOU6EQzoIyKNbGajPGIUW43HYGA8ByR7iaYr6IyPSQHye6+tJc0iCgWmIV/3OoDgUWUVNx5LDeHBxHIckTxmBgzg8zN8jZWHl9DiH9RTCeHgUw4XBvN4ag/lzopCbHEt7RHVm7zGgSAvZ2M8P6CE9bRgBhR4REefUPweAiRIHSVh8hQ1MvOAZ+pMN+F0vevd7XYjYWojssmkxNZ6cSQ8yFGP6dQnHDCMgMiGE+F0wpGMMT2S07hLNfko0P4cESzZngZj9eXJkmyawBfkKkmzYM57ZU+gZycAhbD8y7jLAxliCE2xg6ZG5GuJkK57IKQCX+LObrrROrgGF4Yo0yIYSKIchcFyOymg5CCdluHvuuWc2mPJRo0EIDIbTUoKsA+mUqTyjF305igiIADib7CiyC+MhA6RoX49QZXiUidi0cjwGbzxZivFkaxyeoTBAJIXM/KoCQy9LG+Pri0ORmyEqfxyPzGRTorz/kY/IhkBkRVoQECO3xkB2uMDQlryOtZ/1AhiTTz8e4cmpNPiOg4CMBQOPf4U3OcgVL5maRkdk4UB+slggQdQChp/+DTnzzr0/vo9nf8tU9OdRuDIgjtvkvI5FKvBAWn7q2nj067KFyKxjDFsByqN0ETDdCCRNvx9WHlO+91hVv8LCdhEO+2Yj5KNb2Sl9wwmpmac5CzJN8whCIw9dsyW/5qFvuNFjJaBSA0PeBwExUNGaIubPn59TVA4t+ssKnDmIxUJGEBELeWhBCLYaZfrhPmcEkIuookntOTui8vM/MgaRWqTXFxIgB7lkFPYXnUXi8vegYjzZC6NGmMZjxAxMRDKOskOkMo7IiTxKQ1eCiYwim5ScnEhWQxYMzVkOhEg2c993330zudonCMjDzjmkCxMRr/koNc1JhHW8LAmpkgtBedg5YuVYnGEcBAQX61xwknEo0cgWLw6kCTQIx/eemYwsleB0F79Eah6cUnboe7+zJXu1D0yVSMMyE8fKsuD13ve+N5fMiItuYRKEmIXq/RE84CoIsAUEoVREdG0aOyp/D8wc6ZjNKNdhE3P3eWS6ZCnXgGJNlP4EGnZDt3TNNv2/pMVD5dvIPK59Op8BiWQU7HeSOAZHpBxKEvH8MKCIImpIm/0yaRhCEAKFKz8YpIyDwyIxWYomQnA0+zFeDsChlQyiE+IwHsOT0iIAZZzxyNU/Hkcgp+Pjh+2Mx1EcJ4KKgCIXg7Jf+UusxmLYCArBkNOcNZ/JkKTbxvGS+Sg1ELBWEpCzIcYVoZVrsJRZ+EyJab6IwK8ukBEBISn7IF24THUJpsyTcRjXTzUjGLJzGq946DkZEQwChb2AxPE5pfmaD+e1n2jve780an8BBLHLHPrX6jJIxR/kw34QkN8tk2VaXBb0BI7+taZY24K9jBZBBCEW3U74Fp5+epp9GoutwAQxI05zIg89sxU2oIxE0GxFNqOF/sjhofD2c6W6ACto849KQBOqYeIvEAHgOBmHAzrHACxjixYRnCJlFZTnp4UZsf2CgBAGQ/J5U6osFZaqiiTIhtEuWLDg/xlFjIcwZAz6pXTj+Qnd/vFkL5yI0ehHmVS2KBXMUyaHFA7q/bS1eWrmjKhkQAiYkXISkZrjMjykyTidtTE3P7GrZDBvJYS+ORQCYuCHHHJIdiiGiWg0Tqt/pZrfEvc/Ahf55/UiqWg8DgKKNYjQD0eDVbyUvWUzfzjB3u9ZwQBe5uvEQMzZ937SWXvpS1+av+esSuxBDeHLLOHlp6P97/j5PQJC7krussnC/DoI+2QTMqyXv/zl2T7L/SZ6b63pox/9aJ6Pcc3BmqJFaBk+fQlA7EiAFQjYk+8FKvixBTZA/wKwfcgqwLI3xC1DqwQ0kRYGfB4EhBA4C8csS4w4lKMpw9TuSho1ctxywCitIbk1wmIhUmHgTSk5MvFb2QyLomVK1gBEpbKV4yn9jFc6foynH0ZgPGtT/f0wWsau5EN+CEREl+FpjFJkFWmRDKINIpJ2IwrkhIgYHnnf9ra3ZSOWKfksCEhJKZuJ3wBXWkU2FaUH/OInk62tcGxpvCjcBQIiJ1KAr58UVlpwWMTPNugaTjIqxKBkQrjOTllLifmWuizfrwgC8sukyMPYbFPGZT7ITsYr4MhOkSoiYQOIx0+Ty7jpBgEKnAKFDJId0JsgAxO+UQmo1HTL90FA0m4livUWjiE6lE1UtA9ntpjJ8N7xjnfkCF4SEOVJXxEC55K5lE1KvHjx4hxRZCP2jSyg3K8c75RTTsnjvf3tb7/beAiGMTCopn5EfM4kA/AS8WVSjChKLOQkAopyFhZ9zhG9kJAMieEhRZkhAjKWNJyDBgEpWRDlO9/5zuy0cPEqGwI67LDDcummdIERzBFdFwgoZOWIrhtCzEiVI5LXfBCPQAJbGUmURP1zjb7K7XSXYHRr7UsmJJtjb1FCl/qxLsc2lZbW/CwNLFq0KJMuW/S5wClbEugQWblGBKf4ZV8nHqwhsTEkJegpZdvgU2I11e87vQY0VQRkMRUZICBRMc4WBZhdISBEIrNRTjrLIgIqIRgekrIWIToiH8Qj9UYeCFXmp2SQ4TDO2UhAMlmOKLLTqTUTpRgnOv744/MPKwYxOQ3N4dq0yAQFsulYhJa5KBVtyU7vSj5BqyQEgYSOyeWHBs1NoEG8ApPs6IQTTvi/nSAUAUj5pUUmzV58rrQTpPmBUluQMV45Zhu8pnKfThPQVJVgw9YYulKCKdsQizUZGZmyS2QTITkb40EwMh/rSLInpadFViUWAlJylAQ0qAQTfUV/hryiSjBrT/QjQHgJEP1rQGHwSks2IXuU8ShXOC4HOvbYY/PiswV0DsaZra20aU2n4WVWFrn1E4u+0ZdyzxXMyAHeMo+mtcXYv3/reAGG3SEHx5sHIipbEBB7QED0j4AQh6ze8XBQ8jcRibUzfchkBS4nVJAUjMs11UpAJeq991GCiRCiU7kIXe5KCZyHIw5ahB5GQJNdhJbGusWB41AiOaw5KZ04EUdwFmzQInRcoyOSy2QYE4M78cQT89kQaxkcgfEgnziVL303dwYoQ5qIgGIRWoqvRCsXoa0/IDkRdkUsQiMSZ8HoB8kGAfVnqKHzWIyW9ckgrIM464NAzBM+cFRCwkTEb9v0UV6ISGfW5AZdiChDjZJ9lAsRPaZE4FCK6cPaTlmChczWAdm1UssV0whVCWYxWtnlbKfjrQU2kQj/gBXiRjzsyxlgGRQSQ6xNx8X407HtdAbEQAFNyeVpeCmmdZDyNLzSxRpRpJbAC0IYRkBSewqmbAplvINOwysNRS6n4cvrP2I8kYnxi54IiMLjNLxoJAI6Db+0l0bHGpezG1JsxomAREikY21IVHc88nE8kkIaFjEZsTWPQQTEyJwdidPwIqnPZFLmqx+n4Z3+Xbhw4dhPw8dZMLI7HU0GupMBWFye1zsDRz4vurbVBCOkCWen2x1HBzI560OxmB+ELeqP0mRX1hJtNSVc3IqhhLEOxx6N7zoe75tuxQiiZCMWwOmOnmVLmssOkJ1FcwThu/5FaGOZH1swN+uKcHO2jV3JXPWPhPlCUxMIZU7sTOBBqoIQfyrlaTp2uj7rNAFhfuytxFBeiJKubqVQ13pYCxBJOJKFNQtsZcQKQhhGQLG4bDyRlPKl4Mab13MGxkcO4zn7pbYWQYxHoQxfi/EYloiKGOJCRNGHM5UXIjIit0jEhYgIh6zIRYTnbE7jx7qV48khY3PdB8NkzGSZiIAsQouQ8BHRkRl5kZl1FFkUh9MPA0dA9pNNjOtCxCAgRL2kd7mFUsb6llJEycnxzRWBkCPOYkWpRA8yRASGBOjLfvRl8RmROd4cR2nmi4wFPgRBH3vvvXfOwAUHzs6pBSq4cWK3isi4LPTH6f7IzGUwbJXuZS1REpIZ3sjHGo7/w74RqtLSZ/RsEVlZLijqw82x8IMFQjZ3BNzUYtFegCWfQMge4QtbGK3o1mkCigyIYhEPMlDaMEgEtLTH7LIJ3zNchIDdRXgtCGEYAYkkSiEGPdGtGMYThTgrAxl2KwbSonQGxQBFIIYibSa3LMpncSuG0//mhSzM29keRiozsP7je30qmZCYa5sYFpmk1U0EJHq6Qpbs8GN4tnErBgdR7jJ2mIms5S0O5DxzDBciBgHF9VAcRRAhFyczV1kPfOiT85dNBuj6GEQNK07IuWRPTWdLy2MHvY+MkB3EFfaIm/6QDTtxZgluMIOnx3FYIpA9BlEiKWdJyclWZB7lZR1x1g0BO41uP3NHMi7ZYM+yKISIbJGFch42gg27atNiKYPMyi1yCqyBf5s+xr1PpwmIs4sgXpTC0CyqyUAoUdRjnCKnGpyzKn18rrUlIJFEGsvhHIPUpL/IwHeijWiqb9kYg2LsDJBciKEcD7kwJEbrWMaEBERQ/TmGkyEOkU8/cUUvOZRhSkLGh2wcJ1rBQabgxWCRGYJAyk0EJEqXN6NaB0BaMCQTWRi3jEjZwkAZp741eOjfWUKEJwBMxc2o4QCRzcko4G6unBj5wI08cXYoC3TXHxkBHSGgU089NdsFx5KNWkeC7WRaEAOHhR0iCbIRPMhFPs7M5mItBXHQT5SKkXmwA7qyX3mlu75gb75IwlyMZV5sXGNTMjC6YB/0YztK6VQJaDJW0DsmgOOIHB7JAN76BwcSqSjb50iHMYjeUtwwAkNTqscTcDikES+RtanpV0bB2cjAAUU6BsP59S+j0Y/ISLayxXiIgbE4Rp8MSxaGSDi8fhilPvTXLw95ka+XNFx/iMkaguhnkVZ5h4g5CmJx7xKHjSyJEzFspQTnYMC2yMQcEZB9I0vzPdJk9EGoxoUDR1JWcLypfCg9PMxV/8pWMsvw6JmDivbWRsyrbMi8XCsTHKwRIiDZIqdfnqYkVxbSJ/wRRaznBCHItmWTdEfPZTMPjxuBmWCDcJuuP4v5ywRlXY4zNySkT3izIzbCxumKfZc2Xo7b/z7kkEmTmxzknixB9/c/Ff93OgMCINCl4dYlOLzFZpFKk+nISjggo5NFlA15cHxrKVLheEWGVO7rfURAjo04GAhjEI05r/6Npx9j9vcT43EghidaIg7jR8bBePTj+Inksb++OKMt40eCZEBCjBNRREaI1JQJMOCM5gEnxzNoYyJrW/+HLPY1B3L4Xp9k9rlmHnCAh2OMLdrDQPMZZ4VTkDQd6UcjAxIjP1KDCUcIPZHfXPWvBA7d6gvmMJrXy7r6CUXmhJytoZT3hlnfIlsQaBZiEn9CptAB+REiXMp5GAt+9FK2mDd84Gne8O0nqpi//enFlr2EvcHbsaW9tSUf8oQcE+Ffyryi3neegLpau64ohc3FcTmkF2JCBDILGZPSDRHJCN2iIEghiVGcdC7i2aU5VwLqkjaqLI0IIB7ZguxAVoF0nK20TidDUM4qDZXjlXwaIezsh5WAOquaKlggEKWe0suisLUZp8uRklPvXs4QKQ9rm1kIVAKaWfqak9IiHaes42VdSaZjEdjZJYvUFoNj7WlOgjRDJ91JApoJq/czVN8zUuw4G+eyBKe4La7GqXCXXzh7ZyE+Fs9n5CTnqNCdJKCZsHo/R+1lhUw7zsY5I+fMntLLGSJnyZx1sw4kI6rrPytEPcs1aCcJaLlmVA+uCFQEZgwClYBmjKqqoBWB2YdAJaDZp9M6o4rAjEGgEtCMUVUVtCIw+xD4H21vU+67Jd0HAAAAAElFTkSuQmCC;" parent="1" vertex="1">
          <mxGeometry x="528.39" y="1095" width="73.22" height="60" as="geometry" />
        </mxCell>
        <mxCell id="BYxNGRRmFOuMaITutWH8-4" value="Figure (b) - Search Process" style="swimlane;whiteSpace=wrap;html=1;fillColor=#dae8fc;strokeColor=#6c8ebf;" vertex="1" parent="1">
          <mxGeometry x="47" y="528" width="633" height="390" as="geometry" />
        </mxCell>
        <mxCell id="BYxNGRRmFOuMaITutWH8-6" value="Figure (c) - Results Display" style="swimlane;whiteSpace=wrap;html=1;fillColor=#e1d5e7;strokeColor=#9673a6;" vertex="1" parent="1">
          <mxGeometry x="290" y="918" width="490" height="252" as="geometry" />
        </mxCell>
      </root>
    </mxGraphModel>
  </diagram>
</mxfile>
